<?xml version="1.0" encoding="UTF-8" standalone="no"?>
<!-- Created with Inkscape (http://www.inkscape.org/) -->

<svg
   xmlns:dc="http://purl.org/dc/elements/1.1/"
   xmlns:cc="http://creativecommons.org/ns#"
   xmlns:rdf="http://www.w3.org/1999/02/22-rdf-syntax-ns#"
   xmlns:svg="http://www.w3.org/2000/svg"
   xmlns="http://www.w3.org/2000/svg"
   xmlns:sodipodi="http://sodipodi.sourceforge.net/DTD/sodipodi-0.dtd"
   xmlns:inkscape="http://www.inkscape.org/namespaces/inkscape"
   width="89.681816mm"
   height="131.60384mm"
   viewBox="0 0 89.681817 131.60384"
   version="1.1"
   id="svg1039"
   inkscape:version="0.92.4 (5da689c313, 2019-01-14)"
   sodipodi:docname="naked_restaurant.svg">
  <defs
     id="defs1033" />
  <sodipodi:namedview
     id="base"
     pagecolor="#ffffff"
     bordercolor="#666666"
     borderopacity="1.0"
     inkscape:pageopacity="0.0"
     inkscape:pageshadow="2"
     inkscape:zoom="0.7"
     inkscape:cx="-125.22088"
     inkscape:cy="215.43269"
     inkscape:document-units="mm"
     inkscape:current-layer="layer1"
     showgrid="false"
     inkscape:pagecheckerboard="true"
     borderlayer="false"
     fit-margin-top="0"
     fit-margin-left="0"
     fit-margin-right="0"
     fit-margin-bottom="0"
     inkscape:window-width="1920"
     inkscape:window-height="986"
     inkscape:window-x="-11"
     inkscape:window-y="-11"
     inkscape:window-maximized="1" />
  <metadata
     id="metadata1036">
    <rdf:RDF>
      <cc:Work
         rdf:about="">
        <dc:format>image/svg+xml</dc:format>
        <dc:type
           rdf:resource="http://purl.org/dc/dcmitype/StillImage" />
        <dc:title></dc:title>
      </cc:Work>
    </rdf:RDF>
  </metadata>
  <g
     inkscape:label="Layer 1"
     inkscape:groupmode="layer"
     id="layer1"
     transform="translate(-182.48627,-259.15631)">
    <path
       style="display:inline;opacity:1;fill:#000000;fill-opacity:1;fill-rule:evenodd;stroke:none;stroke-width:0.62529451;stroke-opacity:0.94312798"
       d="m 168.94766,293.91544 h 0.0522 c -0.0201,0.0502 -0.0378,0.10111 -0.0486,0.15452 z"
       id="path4850"
       inkscape:connector-curvature="0" />
    <g
       id="g829">
      <g
         transform="matrix(3.0763972,0,0,1.8187591,-232.62504,124.52654)"
         id="g4905"
         style="display:inline">
        <path
           style="fill:#000000;fill-opacity:1;stroke:none;stroke-width:0.24628234px;stroke-linecap:butt;stroke-linejoin:miter;stroke-opacity:0.94312798"
           d="m 164.08581,74.060286 c -0.75372,-0.0587 -1.50274,-0.06462 -2.16799,0.103342 -6.2069,1.567155 -7.44096,17.215841 -7.47006,20.585394 l 0.0465,10.364528 c -0.006,0.34434 -0.0126,4.87444 -0.006,5.20076 0.11164,5.21136 1.09887,4.8001 2.96796,4.8001 1.40544,0 6.48856,-0.0148 6.48856,-0.0148 l 0.10053,-38.569547"
           id="path4678"
           inkscape:connector-curvature="0"
           sodipodi:nodetypes="csccsscc" />
        <g
           id="g4899">
          <path
             sodipodi:nodetypes="ccccccc"
             inkscape:connector-curvature="0"
             id="path4690"
             d="m 163.10992,76.423749 -2.14191,-0.284979 -0.008,1.767014 -0.44986,66.059336 h 3.43359 l 0.10066,-67.435053 z"
             style="fill:#000200;fill-opacity:1;stroke:none;stroke-width:0.32503572px;stroke-linecap:butt;stroke-linejoin:miter;stroke-opacity:1" />
          <rect
             ry="1.7155014"
             y="141.99803"
             x="160.51015"
             height="4.3839574"
             width="3.4368494"
             id="rect4714"
             style="opacity:1;fill:#000000;fill-opacity:1;fill-rule:evenodd;stroke:none;stroke-width:0.30578128;stroke-opacity:0.94312798" />
        </g>
      </g>
      <g
         transform="matrix(2.5042727,0,0,2.3996072,40.255819,162.39606)"
         id="g4909"
         style="display:inline">
        <path
           style="opacity:1;fill:#000000;fill-opacity:1;fill-rule:evenodd;stroke:none;stroke-width:0.0008336;stroke-miterlimit:4;stroke-dasharray:none;stroke-opacity:0.94312798"
           d="m 66.644174,40.345597 v 54.821487 h 0.841301 c 0.682145,0 1.226386,-0.45985 1.230946,-1.03096 l 0.187088,-23.42977 c -0.05971,-1.78734 1.106539,-6.53863 3.676134,-6.5358 4.701376,-0.287 4.064536,-0.1592 4.064536,-20.918098 0,-1.233273 -0.880045,-2.226245 -1.973544,-2.226245 -1.0935,0 -1.97406,0.992972 -1.97406,2.226245 v 15.456056 c -0.04041,-6.9e-4 -0.07971,-0.0041 -0.120406,-0.0041 H 68.716421 V 42.549101 c 0,-1.233273 -0.880044,-2.225727 -1.973544,-2.225727 -0.03506,0 -0.0641,0.02021 -0.0987,0.02222 z"
           id="path4848"
           inkscape:connector-curvature="0"
           sodipodi:nodetypes="ccsscccsscscsscc" />
        <path
           style="display:inline;opacity:1;fill:#000000;fill-opacity:1;fill-rule:evenodd;stroke:none;stroke-width:0.62530071;stroke-opacity:0.94312798"
           d="m 66.824057,40.345793 v 54.821483 h -0.841301 c -0.682145,0 -1.226386,-0.45985 -1.230946,-1.03096 L 64.564722,70.706549 c 0.05971,-1.787339 -1.106539,-6.538629 -3.676134,-6.535799 -4.701376,-0.287 -4.064536,-0.1592 -4.064536,-20.918098 0,-1.233273 0.880045,-2.226245 1.973544,-2.226245 1.0935,0 1.97406,0.992972 1.97406,2.226245 v 15.456056 c 0.04041,-6.88e-4 0.07971,-0.0041 0.120406,-0.0041 h 3.859748 v -16.15531 c 0,-1.233273 0.880044,-2.225727 1.973544,-2.225727 0.03506,0 0.0641,0.02021 0.0987,0.02222 z"
           id="path4848-0"
           inkscape:connector-curvature="0"
           sodipodi:nodetypes="ccsscccsscscsscc" />
      </g>
    </g>
  </g>
</svg>
