<?xml version="1.0" encoding="UTF-8" standalone="no"?>
<!-- Created with Inkscape (http://www.inkscape.org/) -->

<svg
   xmlns:osb="http://www.openswatchbook.org/uri/2009/osb"
   xmlns:dc="http://purl.org/dc/elements/1.1/"
   xmlns:cc="http://creativecommons.org/ns#"
   xmlns:rdf="http://www.w3.org/1999/02/22-rdf-syntax-ns#"
   xmlns:svg="http://www.w3.org/2000/svg"
   xmlns="http://www.w3.org/2000/svg"
   xmlns:sodipodi="http://sodipodi.sourceforge.net/DTD/sodipodi-0.dtd"
   xmlns:inkscape="http://www.inkscape.org/namespaces/inkscape"
   width="210mm"
   height="280mm"
   viewBox="0 0 210.0021 280.00279"
   version="1.1"
   id="svg8"
   inkscape:version="0.92.4 (5da689c313, 2019-01-14)"
   sodipodi:docname="restaurant.svg"
   inkscape:export-filename="C:\Users\klint\Pictures\ikonas\restaurant.png"
   inkscape:export-xdpi="96"
   inkscape:export-ydpi="96">
  <defs
     id="defs2">
    <linearGradient
       id="linearGradient4839"
       osb:paint="gradient">
      <stop
         style="stop-color:#a90000;stop-opacity:1;"
         offset="0"
         id="stop4835" />
      <stop
         style="stop-color:#a90000;stop-opacity:0;"
         offset="1"
         id="stop4837" />
    </linearGradient>
  </defs>
  <sodipodi:namedview
     id="base"
     pagecolor="#ffffff"
     bordercolor="#666666"
     borderopacity="1.0"
     inkscape:pageopacity="0.0"
     inkscape:pageshadow="2"
     inkscape:zoom="0.25"
     inkscape:cx="-207.04783"
     inkscape:cy="787.24983"
     inkscape:document-units="mm"
     inkscape:current-layer="g4657"
     showgrid="false"
     scale-x="0.90001"
     inkscape:pagecheckerboard="true"
     inkscape:window-width="1920"
     inkscape:window-height="986"
     inkscape:window-x="-11"
     inkscape:window-y="-11"
     inkscape:window-maximized="1"
     inkscape:lockguides="true" />
  <metadata
     id="metadata5">
    <rdf:RDF>
      <cc:Work
         rdf:about="">
        <dc:format>image/svg+xml</dc:format>
        <dc:type
           rdf:resource="http://purl.org/dc/dcmitype/StillImage" />
        <dc:title />
      </cc:Work>
    </rdf:RDF>
  </metadata>
  <g
     inkscape:label="Layer 1"
     inkscape:groupmode="layer"
     id="layer1"
     style="display:inline"
     transform="translate(0,-17.00017)">
    <g
       id="g4657"
       transform="matrix(1,0,0,0.99116714,0,17.167082)">
      <path
         style="display:inline;fill:#ff6160;fill-opacity:1;stroke:#000000;stroke-width:10.81474781;stroke-miterlimit:4;stroke-dasharray:none;stroke-opacity:1"
         d="m 105.00071,18.581922 c -55.004031,0 -99.5933361,40.75727 -99.5933361,91.033898 0,17.35509 5.3151401,33.5743 14.5357801,47.37589 l 85.057556,116.17436 87.0394,-119.28481 c 7.99378,-13.10415 12.55448,-28.19668 12.55448,-44.26544 0,-50.276628 -44.58989,-91.033908 -99.59388,-91.033898 z"
         id="path834"
         inkscape:connector-curvature="0"
         sodipodi:nodetypes="sscccss" />
    </g>
    <path
       style="opacity:1;fill:#000000;fill-opacity:1;fill-rule:evenodd;stroke:none;stroke-width:0.62530071;stroke-opacity:0.94312798"
       d="m 41.11398,103.27491 h 0.05219 c -0.02014,0.0502 -0.03777,0.10111 -0.04858,0.15452 z"
       id="path4850"
       inkscape:connector-curvature="0" />
    <g
       id="g4905"
       transform="matrix(3.076428,0,0,1.8187773,-360.46271,-66.11568)">
      <path
         sodipodi:nodetypes="csccsscc"
         inkscape:connector-curvature="0"
         id="path4678"
         d="m 164.08581,74.060286 c -0.75372,-0.0587 -1.50274,-0.06462 -2.16799,0.103342 -6.2069,1.567155 -7.44096,17.215841 -7.47006,20.585394 l 0.0465,10.364528 c -0.006,0.34434 -0.0126,4.87444 -0.006,5.20076 0.11164,5.21136 1.09887,4.8001 2.96796,4.8001 1.40544,0 6.48856,-0.0148 6.48856,-0.0148 l 0.10053,-38.569547"
         style="fill:#000000;fill-opacity:1;stroke:none;stroke-width:0.24628234px;stroke-linecap:butt;stroke-linejoin:miter;stroke-opacity:0.94312798" />
      <g
         id="g4899">
        <path
           style="fill:#000200;fill-opacity:1;stroke:none;stroke-width:0.32503572px;stroke-linecap:butt;stroke-linejoin:miter;stroke-opacity:1"
           d="m 163.10992,76.423749 -2.14191,-0.284979 -0.008,1.767014 -0.44986,66.059336 h 3.43359 l 0.10066,-67.435053 z"
           id="path4690"
           inkscape:connector-curvature="0"
           sodipodi:nodetypes="ccccccc" />
        <rect
           style="opacity:1;fill:#000000;fill-opacity:1;fill-rule:evenodd;stroke:none;stroke-width:0.30578128;stroke-opacity:0.94312798"
           id="rect4714"
           width="3.4368494"
           height="4.3839574"
           x="160.51015"
           y="141.99803"
           ry="1.7155014" />
      </g>
    </g>
    <g
       id="g4909"
       transform="matrix(2.5042977,0,0,2.3996311,-87.579146,-28.24578)">
      <path
         sodipodi:nodetypes="ccsscccsscscsscc"
         inkscape:connector-curvature="0"
         id="path4848"
         d="m 66.644174,40.345597 v 54.821487 h 0.841301 c 0.682145,0 1.226386,-0.45985 1.230946,-1.03096 l 0.187088,-23.42977 c -0.05971,-1.78734 1.106539,-6.53863 3.676134,-6.5358 4.701376,-0.287 4.064536,-0.1592 4.064536,-20.918098 0,-1.233273 -0.880045,-2.226245 -1.973544,-2.226245 -1.0935,0 -1.97406,0.992972 -1.97406,2.226245 v 15.456056 c -0.04041,-6.9e-4 -0.07971,-0.0041 -0.120406,-0.0041 H 68.716421 V 42.549101 c 0,-1.233273 -0.880044,-2.225727 -1.973544,-2.225727 -0.03506,0 -0.0641,0.02021 -0.0987,0.02222 z"
         style="opacity:1;fill:#000000;fill-opacity:1;fill-rule:evenodd;stroke:none;stroke-width:0.0008336;stroke-miterlimit:4;stroke-dasharray:none;stroke-opacity:0.94312798" />
      <path
         sodipodi:nodetypes="ccsscccsscscsscc"
         inkscape:connector-curvature="0"
         id="path4848-0"
         d="m 66.824057,40.345793 v 54.821483 h -0.841301 c -0.682145,0 -1.226386,-0.45985 -1.230946,-1.03096 L 64.564722,70.706549 c 0.05971,-1.787339 -1.106539,-6.538629 -3.676134,-6.535799 -4.701376,-0.287 -4.064536,-0.1592 -4.064536,-20.918098 0,-1.233273 0.880045,-2.226245 1.973544,-2.226245 1.0935,0 1.97406,0.992972 1.97406,2.226245 v 15.456056 c 0.04041,-6.88e-4 0.07971,-0.0041 0.120406,-0.0041 h 3.859748 v -16.15531 c 0,-1.233273 0.880044,-2.225727 1.973544,-2.225727 0.03506,0 0.0641,0.02021 0.0987,0.02222 z"
         style="display:inline;opacity:1;fill:#000000;fill-opacity:1;fill-rule:evenodd;stroke:none;stroke-width:0.62530071;stroke-opacity:0.94312798" />
    </g>
  </g>
  <g
     inkscape:groupmode="layer"
     id="layer2"
     inkscape:label="Layer 2"
     style="display:none">
    <path
       style="display:inline;opacity:1;fill:#000000;fill-opacity:1;fill-rule:evenodd;stroke:none;stroke-width:0.62530071;stroke-opacity:0.94312798"
       d="m 112.07335,58.216962 c 0.009,2.932833 -0.0194,15.620488 -0.0194,15.620488 0.29643,2.076113 2.47445,2.285263 4.43008,2.351363 2.73485,0 2.61399,4.44707 2.92846,6.187639 v 26.095818 c 0,0.57113 0.54931,1.03096 1.23146,1.03096 h 0.80099 V 54.681741 c -1.04454,0.06085 -1.87484,1.009771 -1.87484,2.203504 V 73.04101 h -4.05716 c -0.0406,0 -0.0801,0.0026 -0.1204,0.0036 l -0.0331,-14.959941 c 0,-2.120555 -3.28615,-2.246854 -3.28613,0.132293 z"
       id="rect4704"
       inkscape:connector-curvature="0"
       sodipodi:nodetypes="ccccssccscsccc" />
    <path
       style="display:inline;opacity:1;fill:#000000;fill-opacity:1;fill-rule:evenodd;stroke:none;stroke-width:0.62530071;stroke-opacity:0.94312798"
       d="m 130.81657,58.216962 c -0.009,2.932833 0.0194,15.620488 0.0194,15.620488 -0.29642,2.076113 -2.47445,2.285263 -4.43007,2.351363 -2.73485,0 -2.61399,4.44707 -2.92846,6.18765 v 26.095807 c 0,0.57113 -0.54932,1.03096 -1.23147,1.03096 h -0.80099 V 54.681741 c 1.04455,0.06085 1.87484,1.009771 1.87484,2.203504 V 73.04101 h 4.05716 c 0.0406,0 0.0801,0.0026 0.12041,0.0036 l 0.0331,-14.959941 c 0,-2.120555 3.28615,-2.246854 3.28613,0.132293 z"
       id="rect4704-0"
       inkscape:connector-curvature="0"
       sodipodi:nodetypes="ccccssccscsccc" />
  </g>
</svg>
